<?xml version="1.0" encoding="UTF-8" standalone="no"?>
<svg
   xmlns:dc="http://purl.org/dc/elements/1.1/"
   xmlns:cc="http://creativecommons.org/ns#"
   xmlns:rdf="http://www.w3.org/1999/02/22-rdf-syntax-ns#"
   xmlns:svg="http://www.w3.org/2000/svg"
   xmlns="http://www.w3.org/2000/svg"
   xmlns:sodipodi="http://sodipodi.sourceforge.net/DTD/sodipodi-0.dtd"
   xmlns:inkscape="http://www.inkscape.org/namespaces/inkscape"
   sodipodi:docname="markdown2html-logo.svg"
   inkscape:version="1.0 (4035a4fb49, 2020-05-01)"
   id="svg8"
   version="1.1"
   viewBox="0 0 33.866666 33.866668"
   height="128"
   width="128">
  <defs
     id="defs2" />
  <sodipodi:namedview
     inkscape:window-maximized="1"
     inkscape:window-y="-9"
     inkscape:window-x="-9"
     inkscape:window-height="1001"
     inkscape:window-width="1920"
     units="px"
     showgrid="false"
     inkscape:document-rotation="0"
     inkscape:current-layer="layer1"
     inkscape:document-units="mm"
     inkscape:cy="56.655728"
     inkscape:cx="92.574122"
     inkscape:zoom="3.959798"
     inkscape:pageshadow="2"
     inkscape:pageopacity="0.0"
     borderopacity="1.0"
     bordercolor="#666666"
     pagecolor="#ffffff"
     id="base" />
  <metadata
     id="metadata5">
    <rdf:RDF>
      <cc:Work
         rdf:about="">
        <dc:format>image/svg+xml</dc:format>
        <dc:type
           rdf:resource="http://purl.org/dc/dcmitype/StillImage" />
        <dc:title></dc:title>
      </cc:Work>
    </rdf:RDF>
  </metadata>
  <g
     id="layer1"
     inkscape:groupmode="layer"
     inkscape:label="Layer 1">
    <path
       transform="scale(0.26458333)"
       d="M 81.0625 33.078125 L 81.136719 44.447266 L 11.113281 44.447266 L 11.113281 83.589844 L 81.388672 83.589844 L 81.460938 94.910156 L 118.64844 63.650391 L 81.0625 33.078125 z M 77.734375 46.769531 C 78.674211 46.769531 79.478354 47.13571 80.03125 47.857422 C 80.605674 48.590582 80.867188 49.630835 80.867188 50.910156 L 80.867188 58.767578 C 81.308711 58.270015 81.75517 57.723775 82.189453 57.375 C 82.880672 56.830971 83.646535 56.42645 84.472656 56.162109 C 85.301427 55.882553 86.19004 55.738281 87.130859 55.738281 C 88.553084 55.738281 89.831504 56.08149 90.947266 56.771484 C 92.075062 57.460296 92.967896 58.472553 93.605469 59.777344 L 93.613281 59.785156 C 94.018998 60.55847 94.283771 61.421745 94.421875 62.369141 C 94.557862 63.28644 94.623047 64.331544 94.623047 65.515625 L 94.623047 77.076172 C 94.623047 78.354423 94.359713 79.397005 93.773438 80.128906 C 93.211686 80.845849 92.419025 81.216797 91.511719 81.216797 C 90.541076 81.216797 89.727918 80.859863 89.199219 80.128906 C 88.670489 79.397946 88.441406 78.363222 88.441406 77.076172 L 88.441406 66.892578 C 88.441406 65.008892 88.181626 63.596124 87.724609 62.673828 C 87.292836 61.790016 86.521138 61.351562 85.183594 61.351562 C 84.30725 61.351563 83.536786 61.623809 82.830078 62.189453 C 82.141607 62.736657 81.62356 63.48675 81.269531 64.466797 C 81.269116 64.468309 81.269947 64.473302 81.269531 64.474609 C 81.020642 65.254231 80.867188 66.828639 80.867188 69.101562 L 80.867188 77.076172 C 80.867187 78.34163 80.608928 79.384268 80.039062 80.128906 C 79.486058 80.854319 78.676626 81.21875 77.734375 81.21875 C 76.763732 81.21875 75.944715 80.859867 75.416016 80.128906 C 74.88729 79.397949 74.65625 78.363222 74.65625 77.076172 L 74.65625 50.910156 C 74.65625 49.620744 74.893892 48.581133 75.443359 47.857422 L 75.451172 47.857422 C 76.002926 47.133673 76.803814 46.769531 77.734375 46.769531 z M 60.664062 47.121094 C 62.713217 47.121094 64.48558 47.484627 65.96875 48.224609 L 65.976562 48.224609 C 66.941748 48.720714 67.794797 49.407433 68.525391 50.275391 C 69.255826 51.143151 69.818265 52.14793 70.216797 53.289062 L 70.216797 53.296875 C 70.628474 54.425782 70.835938 55.612709 70.835938 56.833984 C 70.835938 58.739906 70.414285 60.496664 69.5625 62.072266 C 68.747811 63.588937 67.900935 64.791382 67.021484 65.6875 L 67.021484 65.695312 C 66.172221 66.545759 64.762437 67.872987 62.78125 69.6875 C 60.824789 71.491317 59.488999 72.893456 58.792969 73.84375 L 58.785156 73.851562 L 58.777344 73.859375 C 58.636742 74.037236 58.485545 74.294219 58.339844 74.509766 L 67.765625 74.509766 C 68.845289 74.509766 69.72227 74.755592 70.361328 75.316406 C 70.990544 75.868595 71.330078 76.68169 71.330078 77.609375 C 71.330078 78.434744 71.064054 79.188006 70.564453 79.769531 C 70.04642 80.38838 69.272983 80.669922 68.335938 80.669922 L 53.863281 80.669922 C 52.803868 80.669922 51.913205 80.331112 51.273438 79.628906 L 51.265625 79.621094 C 50.649248 78.928053 50.318359 78.066183 50.318359 77.123047 C 50.318359 76.474639 50.523331 75.732535 50.890625 74.830078 C 51.25778 73.912711 51.659597 73.176702 52.123047 72.623047 L 52.128906 72.623047 L 52.128906 72.615234 C 53.876643 70.576259 55.452403 68.831817 56.863281 67.378906 L 56.863281 67.386719 C 58.268203 65.925175 59.262477 64.967842 59.912109 64.474609 C 60.968465 63.634504 61.840314 62.795672 62.523438 61.970703 C 63.219338 61.131342 63.737112 60.286331 64.082031 59.441406 C 64.44047 58.579746 64.611328 57.760943 64.611328 56.96875 C 64.611328 56.101753 64.432441 55.349699 64.068359 54.689453 L 64.060547 54.689453 L 64.060547 54.681641 C 63.705071 54.002176 63.222351 53.491738 62.591797 53.117188 C 61.971523 52.741642 61.294391 52.552734 60.544922 52.552734 C 58.950698 52.552734 57.771561 53.289437 56.849609 54.878906 L 56.849609 54.886719 C 56.792852 54.982439 56.539747 55.614879 56.230469 56.583984 L 56.222656 56.591797 C 55.912531 57.604627 55.55259 58.411371 55.115234 59.003906 L 55.107422 59.011719 C 54.642952 59.654378 53.927596 59.982422 53.095703 59.982422 C 52.348113 59.982422 51.67537 59.68379 51.167969 59.113281 C 50.650075 58.530981 50.394531 57.720047 50.394531 56.789062 C 50.394531 55.701622 50.611509 54.574295 51.035156 53.421875 C 51.463226 52.257433 52.100396 51.20659 52.935547 50.267578 L 52.943359 50.259766 C 53.801278 49.310707 54.870618 48.554896 56.146484 47.990234 L 56.146484 47.998047 C 57.451434 47.411147 58.957709 47.121094 60.664062 47.121094 z M 17.884766 55.740234 C 18.713596 55.740234 19.456905 56.081375 20.015625 56.726562 C 20.528663 57.291987 20.7209 58.121546 20.78125 59.019531 C 21.571524 58.097379 22.371379 57.213317 23.265625 56.716797 C 24.388076 56.093549 25.636205 55.787109 26.990234 55.787109 C 28.395854 55.787109 29.631791 56.098898 30.673828 56.748047 C 31.577148 57.310781 32.268625 58.24009 32.886719 59.285156 C 33.730285 58.215694 34.609451 57.296148 35.582031 56.742188 C 36.679095 56.101996 37.896911 55.787109 39.214844 55.787109 C 40.737695 55.787109 42.078066 56.120582 43.210938 56.8125 C 44.343147 57.504017 45.205416 58.51929 45.765625 59.810547 L 45.773438 59.818359 C 46.281791 61.026871 46.498047 62.786355 46.498047 65.164062 L 46.498047 76.945312 C 46.498047 78.283934 46.225727 79.365682 45.621094 80.115234 C 45.033241 80.84398 44.219859 81.21875 43.287109 81.21875 C 42.377547 81.21875 41.574427 80.845681 40.976562 80.123047 L 40.96875 80.115234 C 40.368663 79.35403 40.099609 78.270037 40.099609 76.945312 L 40.099609 66.800781 C 40.099609 65.518255 40.045054 64.498812 39.945312 63.755859 L 39.945312 63.748047 L 39.939453 63.748047 C 39.857294 63.048638 39.6369 62.490987 39.263672 62.033203 C 38.926689 61.619855 38.410439 61.390625 37.607422 61.390625 C 36.982519 61.390625 36.393711 61.597185 35.810547 62.025391 C 35.244595 62.449616 34.812051 63.008434 34.488281 63.732422 C 34.148549 64.618184 33.9375 66.377497 33.9375 68.921875 L 33.9375 76.943359 C 33.9375 78.281985 33.665176 79.365686 33.060547 80.115234 C 32.472695 80.84398 31.655402 81.21875 30.722656 81.21875 C 29.813093 81.21875 29.017095 80.841017 28.431641 80.115234 L 28.423828 80.115234 C 27.833908 79.364677 27.574219 78.280156 27.574219 76.943359 L 27.574219 67.332031 C 27.574219 65.82485 27.523565 64.663293 27.435547 63.857422 C 27.35163 63.089108 27.13413 62.499389 26.789062 62.048828 L 26.789062 62.041016 C 26.478287 61.62396 25.980618 61.390625 25.179688 61.390625 C 23.519399 61.390625 22.574849 61.966812 22.082031 63.152344 C 21.572564 64.407105 21.294922 66.290811 21.294922 68.787109 L 21.294922 76.943359 C 21.294922 78.268088 21.025858 79.35403 20.425781 80.115234 C 19.851575 80.845794 19.042224 81.21875 18.121094 81.21875 C 17.21153 81.21875 16.40841 80.845681 15.810547 80.123047 L 15.810547 80.113281 L 15.802734 80.113281 C 15.20266 79.352077 14.933594 78.268088 14.933594 76.943359 L 14.933594 59.683594 C 14.933594 58.477429 15.180012 57.491268 15.726562 56.789062 L 15.726562 56.78125 C 16.273318 56.098191 17.028173 55.740234 17.884766 55.740234 z "
       style="opacity:0.996;fill:#ff6600;stroke-width:11.3386;stroke-linecap:round"
       id="rect833" />
  </g>
</svg>
